<?xml version="1.0" encoding="utf-8"?>
<!-- Generator: Adobe Illustrator 25.0.1, SVG Export Plug-In . SVG Version: 6.00 Build 0)  -->
<svg version="1.1" id="Layer_1" xmlns="http://www.w3.org/2000/svg" xmlns:xlink="http://www.w3.org/1999/xlink" x="0px" y="0px"
	 viewBox="0 0 288 560" style="enable-background:new 0 0 288 560;" xml:space="preserve">
<style type="text/css">
	.st0{fill:#1F342D;stroke:#D99129;stroke-width:3;stroke-miterlimit:10;}
</style>
<g>
	<path class="st0" d="M146.8,291.1c-9.3,4-18.8,5.5-30.2,5.5c-27.8,0-51.4-16.5-51.4-42.9c0-28.3,24.2-52.8,61.9-52.8
		c29.5,0,49.4,16.8,49.4,39.7c0,20.6-14.2,32.7-30.2,32.7c-6.8,0-13.1-3.7-12.5-12.1h-0.7c-5.9,8.1-13.7,12.1-23.9,12.1
		c-9.8,0-18.3-6.5-18.3-17.3c0-17,16.6-32.6,40.2-32.6c7.3,0,18.2,2.9,18.2,2.9l-5.8,24.9c-2.5,10.5-0.5,15.3,5.1,15.4
		c8.7,0.1,18.3-9.2,18.3-25.2c0-19.9-14.8-34.2-41.1-34.2C98.2,207.2,75,225,75,252.9c0,23,18.5,37.1,43.6,37.1
		c9.7,0,18.7-1.7,25.6-4.8L146.8,291.1z M137.5,231.7c0,0-4.6-1-8.5-1c-14.9,0-27,11.4-27,24.8c0,6,3.7,10.5,11.2,10.5
		c9.8,0,18.8-10.2,20.7-18.7L137.5,231.7z"/>
</g>
</svg>
