<?xml version="1.0" encoding="utf-8"?>
<!-- Generator: Adobe Illustrator 25.0.1, SVG Export Plug-In . SVG Version: 6.00 Build 0)  -->
<svg version="1.1" id="Layer_1" xmlns="http://www.w3.org/2000/svg" xmlns:xlink="http://www.w3.org/1999/xlink" x="0px" y="0px"
	 viewBox="0 0 288 560" style="enable-background:new 0 0 288 560;" xml:space="preserve">
<style type="text/css">
	.st0{fill:#EFE0D8;}
	.st1{fill:#1F342D;}
</style>
<g>
	<g>
		<path class="st0" d="M116.6,299.6c-31.5,0-54.4-19.3-54.4-45.9c0-15,6.3-28.9,17.8-39.3c11.9-10.7,28.6-16.5,47.1-16.5
			c30.8,0,52.4,17.6,52.4,42.7c0,23.5-16.7,35.7-33.2,35.7c-4.9,0-9.2-1.7-12-4.7c-1.1-1.2-2-2.6-2.6-4.2c-6,5.9-13.4,8.8-22.5,8.8
			c-12.3,0-21.3-8.5-21.3-20.3c0-9.2,4.5-18.3,12.3-25c8.1-6.8,19-10.6,30.9-10.6c7.6,0,18.5,2.9,18.9,3c1.6,0.4,2.5,2,2.2,3.6
			l-5.8,24.9c-1.8,7.5-0.7,10.1-0.1,10.8c0.2,0.2,0.7,0.9,2.4,0.9l0.1,0c7.3,0,15.1-8.5,15.1-22.2c0-19.3-14.6-31.2-38.1-31.2
			c-27.7,0-47.9,17.9-47.9,42.7c0,20.4,16.3,34.1,40.6,34.1c9.3,0,17.9-1.6,24.4-4.5c0.4-0.2,0.8-0.3,1.2-0.3c0.4,0,0.7,0.1,1.1,0.2
			c0.7,0.3,1.3,0.8,1.7,1.6l2.7,5.9c0.3,0.7,0.4,1.6,0.1,2.3c-0.3,0.8-0.9,1.4-1.6,1.7C138.7,297.8,129,299.6,116.6,299.6z
			 M129,233.7c-13,0-24,10-24,21.8c0,4.9,2.8,7.5,8.2,7.5c8,0,16.1-8.8,17.8-16.3l2.8-12.5C132.4,233.9,130.6,233.7,129,233.7z"/>
		<path class="st1" d="M127.2,200.9c29.5,0,49.4,16.8,49.4,39.7c0,20.6-14.2,32.7-30.2,32.7c-6.8,0-13.1-3.7-12.5-12.1h-0.7
			c-5.9,8.1-13.7,12.1-23.9,12.1c-9.8,0-18.3-6.5-18.3-17.3c0-17,16.6-32.6,40.2-32.6c7.3,0,18.2,2.9,18.2,2.9l-5.8,24.9
			c-2.5,10.5-0.5,15.3,5.1,15.4c0.1,0,0.1,0,0.2,0c8.6,0,18.1-9.3,18.1-25.2c0-19.9-14.8-34.2-41.1-34.2C98.2,207.2,75,225,75,252.9
			c0,23,18.5,37.1,43.6,37.1c9.7,0,18.7-1.7,25.6-4.8l2.7,5.9c-9.3,4-18.8,5.5-30.2,5.5c-27.8,0-51.4-16.5-51.4-42.9
			C65.3,225.4,89.5,200.9,127.2,200.9 M113.3,265.9c9.8,0,18.8-10.2,20.7-18.7l3.5-15.5c0,0-4.6-1-8.5-1c-14.9,0-27,11.4-27,24.8
			C102.1,261.5,105.8,265.9,113.3,265.9 M127.2,194.9c-19.2,0-36.6,6.1-49.1,17.3c-12.1,10.9-18.8,25.6-18.8,41.5
			c0,14.3,6.2,27.1,17.5,36.1c10.5,8.3,24.6,12.8,39.8,12.8c12.8,0,22.9-1.8,32.5-6c1.5-0.6,2.6-1.8,3.2-3.3
			c0.6-1.5,0.5-3.2-0.1-4.6l-2.7-5.9c-0.7-1.5-1.9-2.6-3.4-3.1c-0.3-0.1-0.5-0.2-0.8-0.2c0.3,0,0.6,0,0.9,0
			c9.7,0,18.7-3.7,25.3-10.4c7.1-7.2,10.9-17,10.9-28.3c0-13-5.6-24.8-15.8-33.1C156.6,199.3,142.9,194.9,127.2,194.9L127.2,194.9z
			 M118.5,284C95.7,284,81,271.8,81,252.9c0-26,22.6-39.7,44.9-39.7c10.7,0,19.4,2.7,25.5,7.5c-0.2-0.1-0.3-0.1-0.5-0.2
			c-0.5-0.1-11.7-3.1-19.7-3.1c-12.5,0-24.2,4-32.8,11.3c-8.5,7.2-13.4,17.1-13.4,27.3c0,6.8,2.7,12.9,7.5,17.2
			c4.4,3.9,10.4,6.1,16.8,6.1c8.4,0,15.6-2.4,21.7-7.1c0.4,0.6,0.8,1.1,1.3,1.5c2.9,3.1,6.9,4.9,11.6,5.5c-0.7,0.1-1.4,0.2-2,0.5
			C135.6,282.5,127.4,284,118.5,284L118.5,284z M148.6,260.6c-0.2-0.7-0.5-2.9,0.7-8c0,0,0,0,0-0.1l5.8-24.9
			c0.3-1.3,0.2-2.5-0.3-3.7c4,4.6,6.1,10.5,6.1,17.4c0,12.5-7,19.2-12.1,19.2l-0.1,0C148.7,260.6,148.6,260.6,148.6,260.6
			L148.6,260.6z M113.3,259.9c-4.6,0-5.2-2.1-5.2-4.5c0-10.2,9.6-18.8,21-18.8c0.4,0,0.8,0,1.2,0l-2.1,9.1c0,0,0,0,0,0.1
			C126.7,252.3,119.8,259.9,113.3,259.9L113.3,259.9z"/>
	</g>
</g>
</svg>
