<?xml version="1.0" encoding="utf-8"?>
<!-- Generator: Adobe Illustrator 25.0.1, SVG Export Plug-In . SVG Version: 6.00 Build 0)  -->
<svg version="1.1" id="Layer_1" xmlns="http://www.w3.org/2000/svg" xmlns:xlink="http://www.w3.org/1999/xlink" x="0px" y="0px"
	 viewBox="0 0 288 560" style="enable-background:new 0 0 288 560;" xml:space="preserve">
<style type="text/css">
	.st0{fill:#1F342D;stroke:#D99129;stroke-width:0.75;stroke-miterlimit:10;}
</style>
<g>
	<path class="st0" d="M156.89,280.27c-5.94,3.13-11.99,4.32-19.22,4.32c-17.71,0-32.72-12.96-32.72-33.7
		c0-22.25,15.44-41.47,39.42-41.47c18.79,0,31.43,13.18,31.43,31.21c0,16.2-9.07,25.7-19.22,25.7c-4.32,0-8.32-2.92-7.99-9.5h-0.43
		c-3.78,6.37-8.75,9.5-15.23,9.5c-6.26,0-11.66-5.08-11.66-13.61c0-13.39,10.58-25.6,25.6-25.6c4.64,0,11.56,2.27,11.56,2.27
		l-3.67,19.55c-1.62,8.21-0.32,11.99,3.24,12.1c5.51,0.11,11.66-7.24,11.66-19.76c0-15.66-9.4-26.89-26.14-26.89
		c-17.6,0-32.4,13.93-32.4,35.86c0,18.04,11.77,29.16,27.76,29.16c6.16,0,11.88-1.3,16.31-3.78L156.89,280.27z M150.95,233.61
		c0,0-2.92-0.76-5.4-0.76c-9.5,0-17.17,8.96-17.17,19.44c0,4.75,2.38,8.21,7.13,8.21c6.26,0,11.99-7.99,13.18-14.69L150.95,233.61z"
		/>
</g>
</svg>
