<?xml version="1.0" encoding="iso-8859-1"?>
<!-- Generator: Adobe Illustrator 19.0.0, SVG Export Plug-In . SVG Version: 6.00 Build 0)  -->
<svg version="1.1" id="Capa_1" xmlns="http://www.w3.org/2000/svg" xmlns:xlink="http://www.w3.org/1999/xlink" x="0px" y="0px"
	 viewBox="0 0 512 512" style="enable-background:new 0 0 512 512;" xml:space="preserve">
<g>
	<g>
		<path d="M472.212,122.51L263.5,2.01c-4.641-2.68-10.359-2.68-15,0L39.788,122.51c-4.641,2.679-7.5,7.631-7.5,12.99v241
			c0,5.359,2.859,10.311,7.5,12.99L248.5,509.99c4.641,2.68,10.359,2.68,15,0l208.712-120.5c4.641-2.679,7.5-7.631,7.5-12.99v-241
			C479.712,130.141,476.853,125.189,472.212,122.51z M305.013,314.184c-15.12,0-25.2-8.064-27.216-19.152
			c-8.064,10.836-18.145,18.396-31.752,18.396c-14.868,0-31.5-9.324-31.5-29.736c0-23.94,22.428-32.004,51.155-32.004h6.805v-3.276
			c0-10.836-5.796-16.128-18.648-16.128c-14.868,0-20.412,7.057-24.947,7.057c-5.04,0-8.82-9.576-8.82-14.364
			c0-10.332,19.404-18.648,37.548-18.648c21.42,0,42.588,11.34,42.588,34.272v43.092c1.512,9.324,3.275,11.844,7.056,11.844
			c12.601,0,13.608-23.436,13.608-34.523c0-45.108-18.9-69.552-61.74-69.552c-50.399,0-64.764,33.264-64.764,71.567
			c0,35.784,12.601,67.032,57.204,67.032c19.655,0,26.712-6.048,32.508-6.048c6.3,0,9.324,7.308,9.324,11.088
			c0,12.348-31.752,16.128-46.62,16.128c-39.815,0-76.859-28.728-76.859-87.948c0-52.416,28.979-92.987,88.955-92.987
			c54.18,0,86.184,33.012,86.184,84.419C345.08,287.472,332.229,314.184,305.013,314.184z"/>
	</g>
</g>
<g>
	<g>
		<path d="M269.48,267.312c-15.876,0.001-24.191,5.544-24.191,15.876c0,6.552,3.275,10.332,8.567,10.332
			c9.324,0,20.16-10.08,20.16-20.664v-5.544H269.48z"/>
	</g>
</g>
<g>
</g>
<g>
</g>
<g>
</g>
<g>
</g>
<g>
</g>
<g>
</g>
<g>
</g>
<g>
</g>
<g>
</g>
<g>
</g>
<g>
</g>
<g>
</g>
<g>
</g>
<g>
</g>
<g>
</g>
</svg>
